<?xml version="1.0" standalone="no"?>
<!DOCTYPE svg PUBLIC "-//W3C//DTD SVG 20010904//EN"
 "http://www.w3.org/TR/2001/REC-SVG-20010904/DTD/svg10.dtd">
<svg version="1.0" xmlns="http://www.w3.org/2000/svg"
 width="106.000000pt" height="141.000000pt" viewBox="0 0 106.000000 141.000000"
 preserveAspectRatio="xMidYMid meet">

<g transform="translate(0.000000,141.000000) scale(0.100000,-0.100000)"
fill="#000000" stroke="none">
<path d="M233 1251 c-57 -42 -79 -95 -97 -241 -24 -192 -22 -279 10 -342 64
-127 123 -194 234 -266 46 -30 129 -99 185 -153 56 -54 112 -100 128 -104 44
-11 86 13 133 77 75 102 116 259 95 359 -30 137 -106 248 -259 376 -64 54
-169 149 -233 211 -68 65 -125 112 -136 112 -11 0 -38 -13 -60 -29z m93 -77
c16 -20 60 -58 100 -84 80 -55 95 -76 62 -89 l-22 -8 25 -25 c13 -13 54 -35
91 -48 79 -28 162 -86 166 -118 4 -29 -9 -28 -59 3 -88 56 -62 -22 29 -84 72
-49 107 -86 126 -133 19 -44 20 -74 4 -84 -11 -7 -19 1 -77 76 -35 46 -48 26
-33 -52 27 -151 22 -272 -12 -306 -31 -31 -40 0 -47 151 -6 153 -20 206 -60
227 -34 19 -45 -5 -53 -112 -3 -50 -8 -94 -11 -96 -11 -11 -43 32 -53 71 -6
23 -13 94 -16 157 -6 128 -16 175 -36 175 -28 0 -40 -48 -40 -157 0 -116 -7
-130 -46 -87 -17 19 -19 39 -20 223 -1 305 -11 308 -94 29 -23 -76 -32 -86
-50 -54 -17 33 -11 80 22 180 24 73 32 118 35 186 1 50 3 91 3 93 0 1 9 2 19
2 11 0 32 -16 47 -36z"/>
<path d="M277 1098 c-4 -50 -18 -121 -36 -178 -32 -98 -37 -130 -22 -130 4 0
21 44 36 98 46 157 64 179 94 117 10 -21 13 -76 13 -220 -1 -145 2 -197 12
-210 11 -16 14 -4 18 86 3 57 11 116 18 131 16 35 49 46 66 24 16 -22 34 -149
34 -239 0 -78 16 -155 30 -141 4 5 10 44 12 86 4 89 19 115 62 104 55 -14 86
-109 86 -268 0 -107 12 -147 26 -86 10 47 7 170 -7 261 -14 85 -7 104 30 92
12 -4 34 -25 49 -48 l27 -41 3 29 c4 35 -20 70 -83 115 -89 64 -126 103 -128
135 -2 24 2 31 21 33 13 2 34 -4 47 -12 47 -31 39 -15 -10 19 -27 20 -74 43
-105 52 -37 11 -67 28 -93 54 -34 33 -37 40 -25 58 7 11 10 22 8 24 -3 2 -31
21 -63 41 -31 21 -66 51 -78 67 -11 16 -24 29 -28 29 -5 0 -11 -37 -14 -82z"/>
</g>
</svg>
